<?xml version="1.0" encoding="utf-8"?>
<!DOCTYPE svg PUBLIC "-//W3C//DTD SVG 20010904//EN" "http://www.w3.org/TR/2001/REC-SVG-20010904/DTD/svg10.dtd">
<svg version="1.0" xmlns="http://www.w3.org/2000/svg" width="402pt" height="402pt" viewBox="0 0 402 402" style="" preserveAspectRatio="xMidYMid meet">
<g fill="#0D4C38FF" stroke="#0D4C38FF">
<path d="M 1.000 201.000 L 1.000 401.000 201.000 401.000 L 401.000 401.000 401.000 201.000 L 401.000 1.000 201.000 1.000 L 1.000 1.000 1.000 201.000 M 319.607 157.250 C 319.193 222.540 318.822 241.733 318.054 237.500 C 317.955 236.950 317.436 237.596 316.901 238.935 C 316.366 240.274 316.164 241.985 316.452 242.737 C 316.780 243.590 316.542 243.835 315.819 243.388 C 315.038 242.905 314.875 243.231 315.319 244.388 C 315.762 245.544 315.599 245.870 314.819 245.388 C 314.038 244.905 313.875 245.231 314.319 246.388 C 314.762 247.544 314.599 247.870 313.819 247.388 C 313.038 246.905 312.875 247.231 313.319 248.388 C 313.762 249.544 313.599 249.870 312.819 249.388 C 312.038 248.905 311.875 249.231 312.319 250.388 C 312.762 251.544 312.599 251.870 311.819 251.388 C 311.038 250.905 310.875 251.231 311.319 252.388 C 311.762 253.544 311.599 253.870 310.819 253.388 C 310.049 252.913 309.871 253.220 310.286 254.304 C 310.631 255.202 310.413 256.245 309.802 256.622 C 309.082 257.067 308.976 256.848 309.500 256.000 C 310.051 255.108 309.920 254.932 309.086 255.447 C 308.414 255.862 308.100 256.817 308.388 257.569 C 308.677 258.321 308.413 259.245 307.802 259.622 C 307.082 260.067 306.976 259.848 307.500 259.000 C 308.051 258.108 307.920 257.932 307.086 258.447 C 306.414 258.862 306.100 259.817 306.388 260.569 C 306.677 261.321 306.413 262.245 305.802 262.622 C 305.064 263.079 304.975 262.838 305.537 261.905 C 306.260 260.705 306.130 260.706 304.646 261.910 C 303.691 262.686 303.128 263.890 303.395 264.587 C 303.662 265.284 303.120 266.449 302.191 267.177 C 300.639 268.391 300.622 268.336 301.983 266.500 C 303.456 264.513 303.451 264.513 301.197 266.437 C 299.950 267.502 299.132 268.901 299.379 269.545 C 299.917 270.947 283.690 287.357 282.722 286.389 C 281.874 285.541 278.856 287.959 279.487 288.980 C 279.743 289.394 278.986 290.580 277.805 291.616 C 276.623 292.652 275.985 292.938 276.387 292.250 C 277.620 290.141 275.426 290.864 273.405 293.233 C 271.520 295.442 271.521 295.451 273.500 294.031 C 275.240 292.783 275.333 292.784 274.212 294.037 C 273.503 294.829 272.154 295.482 271.214 295.488 C 270.274 295.495 269.484 296.175 269.457 297.000 C 269.431 297.825 268.820 298.372 268.099 298.215 C 267.379 298.058 266.093 298.508 265.241 299.215 C 264.288 300.006 264.136 300.548 264.846 300.625 C 265.962 300.746 265.590 300.977 263.500 301.463 C 261.494 301.929 261.022 302.255 262.000 302.500 C 263.063 302.766 262.304 303.143 260.261 303.365 C 259.580 303.439 259.013 303.945 259.003 304.489 C 258.992 305.034 258.317 305.484 257.503 305.489 C 256.688 305.495 256.013 305.945 256.003 306.489 C 255.992 307.034 255.200 307.484 254.244 307.489 C 253.288 307.495 252.504 308.100 252.503 308.833 C 252.501 309.567 252.192 309.859 251.817 309.483 C 251.441 309.107 250.541 309.175 249.817 309.635 C 248.806 310.276 248.790 310.502 249.750 310.610 C 250.954 310.745 250.625 310.969 248.500 311.463 C 247.950 311.591 247.500 311.816 247.500 311.963 C 247.500 312.110 246.825 312.291 246.000 312.365 C 245.175 312.439 244.607 313.046 244.738 313.714 C 244.885 314.463 244.343 314.685 243.324 314.294 C 242.127 313.835 241.897 314.025 242.490 314.985 C 243.030 315.857 242.922 316.070 242.175 315.608 C 240.619 314.647 236.781 316.837 237.627 318.205 C 238.031 318.859 237.852 319.027 237.189 318.617 C 235.735 317.718 227.746 321.781 228.517 323.027 C 228.853 323.570 228.369 323.695 227.388 323.319 C 226.231 322.875 225.905 323.038 226.388 323.819 C 226.870 324.599 226.544 324.762 225.388 324.319 C 224.231 323.875 223.905 324.038 224.388 324.819 C 224.870 325.599 224.544 325.762 223.388 325.319 C 222.231 324.875 221.905 325.038 222.388 325.819 C 222.870 326.599 222.544 326.762 221.388 326.319 C 220.231 325.875 219.905 326.038 220.388 326.819 C 220.870 327.599 220.544 327.762 219.388 327.319 C 218.231 326.875 217.905 327.038 218.388 327.819 C 218.870 328.599 218.544 328.762 217.388 328.319 C 216.132 327.836 215.891 328.015 216.490 328.985 C 217.050 329.889 216.924 330.071 216.094 329.558 C 214.602 328.636 208.816 330.893 209.565 332.105 C 209.861 332.584 209.332 332.681 208.388 332.319 C 207.407 331.942 206.923 332.067 207.259 332.610 C 207.607 333.173 205.739 333.469 202.673 333.337 C 195.774 333.040 191.872 332.461 192.504 331.830 C 193.429 330.905 185.210 327.752 183.932 328.542 C 183.075 329.071 182.944 328.899 183.510 327.985 C 184.109 327.015 183.868 326.836 182.612 327.319 C 181.456 327.762 181.130 327.599 181.612 326.819 C 182.095 326.038 181.769 325.875 180.612 326.319 C 179.456 326.762 179.130 326.599 179.612 325.819 C 180.095 325.038 179.769 324.875 178.612 325.319 C 177.456 325.762 177.130 325.599 177.612 324.819 C 178.095 324.038 177.769 323.875 176.612 324.319 C 175.456 324.762 175.130 324.599 175.612 323.819 C 176.095 323.038 175.769 322.875 174.612 323.319 C 173.643 323.691 173.148 323.569 173.476 323.039 C 174.247 321.791 170.272 319.714 168.825 320.608 C 168.078 321.070 167.970 320.857 168.510 319.985 C 169.109 319.015 168.868 318.836 167.612 319.319 C 166.456 319.762 166.130 319.599 166.612 318.819 C 167.095 318.038 166.769 317.875 165.612 318.319 C 164.643 318.691 164.148 318.569 164.476 318.039 C 165.247 316.791 161.272 314.714 159.825 315.608 C 159.148 316.027 158.966 315.864 159.373 315.205 C 160.219 313.837 156.381 311.647 154.825 312.608 C 154.148 313.027 153.966 312.864 154.373 312.205 C 155.148 310.952 151.442 308.609 150.048 309.470 C 149.548 309.779 148.813 309.506 148.415 308.862 C 147.932 308.081 148.127 307.961 149.000 308.500 C 149.892 309.051 150.068 308.920 149.553 308.086 C 149.138 307.414 148.183 307.100 147.431 307.388 C 146.679 307.677 145.755 307.413 145.378 306.802 C 144.933 306.082 145.152 305.976 146.000 306.500 C 146.892 307.051 147.068 306.920 146.553 306.086 C 146.138 305.414 145.183 305.100 144.431 305.388 C 143.679 305.677 142.755 305.413 142.378 304.802 C 141.933 304.082 142.152 303.976 143.000 304.500 C 143.892 305.051 144.068 304.920 143.553 304.086 C 143.138 303.414 142.183 303.100 141.431 303.388 C 140.679 303.677 139.755 303.413 139.378 302.802 C 138.921 302.064 139.162 301.975 140.095 302.537 C 141.292 303.258 141.296 303.133 140.128 301.692 C 138.727 299.966 136.905 299.395 137.118 300.750 C 137.184 301.163 137.127 301.388 136.993 301.250 C 136.860 301.113 136.693 300.438 136.622 299.750 C 136.552 299.063 135.596 298.499 134.497 298.499 C 133.391 298.498 132.499 297.829 132.497 296.999 C 132.496 296.174 131.821 295.488 130.997 295.474 C 130.174 295.459 128.904 295.009 128.176 294.474 C 127.143 293.714 127.197 293.610 128.421 294.000 C 129.590 294.372 129.497 294.027 128.059 292.652 C 126.996 291.636 125.708 291.063 125.197 291.378 C 124.686 291.694 123.420 290.951 122.384 289.726 L 120.500 287.500 123.000 289.460 L 125.500 291.421 122.913 288.646 C 121.490 287.120 119.560 285.758 118.625 285.621 C 116.568 285.319 102.905 271.963 103.563 270.898 C 103.819 270.484 103.010 269.078 101.764 267.773 C 100.261 266.199 100.004 266.090 101.000 267.451 C 102.480 269.472 102.471 269.475 100.317 267.656 C 99.117 266.642 98.350 265.251 98.613 264.566 C 98.876 263.881 98.283 262.686 97.296 261.910 C 95.620 260.594 95.600 260.633 97.000 262.500 C 98.379 264.338 98.363 264.393 96.809 263.177 C 95.880 262.449 95.348 261.257 95.628 260.528 C 95.907 259.799 95.586 258.862 94.914 258.447 C 94.080 257.932 93.949 258.108 94.500 259.000 C 95.039 259.873 94.919 260.068 94.138 259.585 C 93.494 259.187 93.221 258.452 93.530 257.952 C 94.325 256.665 92.096 252.823 90.961 253.524 C 90.431 253.852 90.309 253.357 90.681 252.388 C 91.125 251.231 90.962 250.905 90.181 251.388 C 89.401 251.870 89.238 251.544 89.681 250.388 C 90.125 249.231 89.962 248.905 89.181 249.388 C 88.401 249.870 88.238 249.544 88.681 248.388 C 89.125 247.231 88.962 246.905 88.181 247.388 C 87.401 247.870 87.238 247.544 87.681 246.388 C 88.164 245.132 87.985 244.891 87.015 245.490 C 86.131 246.037 85.930 245.923 86.410 245.146 C 87.211 243.850 86.146 239.521 85.247 240.419 C 84.934 240.733 84.591 239.754 84.485 238.245 C 84.380 236.735 83.786 232.350 83.166 228.500 C 82.410 223.800 82.033 198.582 82.020 151.750 L 82.000 82.000 201.042 82.000 L 320.084 82.000 319.607 157.250 "/></g>
<g fill="#FFFFFFFF" stroke="#FFFFFFFF">
<path d="M 82.257 156.250 C 82.640 236.922 82.406 233.469 88.378 246.515 C 99.278 270.324 126.268 295.050 166.500 318.087 C 179.443 325.498 198.019 334.003 201.237 333.992 C 204.397 333.981 222.215 325.668 236.500 317.540 C 274.016 296.193 300.943 271.907 312.496 248.998 C 319.836 234.444 319.415 239.781 319.767 156.750 L 320.084 82.000 200.994 82.000 L 81.905 82.000 82.257 156.250 M 304.000 117.500 L 304.000 136.000 201.000 136.000 L 98.000 136.000 98.000 117.500 L 98.000 99.000 201.000 99.000 L 304.000 99.000 304.000 117.500 M 160.184 251.435 C 170.832 256.375 176.775 256.357 187.028 251.355 C 197.580 246.208 204.458 246.201 215.184 251.328 C 225.808 256.405 231.701 256.404 242.028 251.326 C 252.416 246.218 258.584 246.218 268.972 251.326 C 277.394 255.467 284.787 256.238 288.842 253.398 C 293.128 250.396 292.112 252.757 286.158 259.634 C 276.074 271.283 258.432 285.640 240.556 296.744 C 227.925 304.590 203.736 317.000 201.073 317.000 C 198.214 317.000 176.254 305.831 163.450 297.865 C 143.010 285.148 122.494 268.171 113.160 256.250 C 109.789 251.945 109.902 250.855 113.441 253.532 C 116.804 256.076 124.721 255.372 132.000 251.882 C 135.575 250.168 139.625 248.382 141.000 247.913 C 145.274 246.456 152.185 247.724 160.184 251.435 M 216.500 166.000 L 202.527 180.000 229.763 180.000 C 244.744 180.000 257.000 180.331 257.000 180.737 C 257.000 181.142 251.044 187.442 243.764 194.737 L 230.528 208.000 257.764 208.000 C 272.744 208.000 284.987 208.113 284.972 208.250 C 284.877 209.093 258.219 236.007 257.448 236.039 C 256.927 236.060 250.558 229.873 243.295 222.289 L 230.089 208.500 216.040 222.491 L 201.991 236.482 188.254 222.745 L 174.517 209.008 160.754 222.745 L 146.991 236.482 132.750 222.241 L 118.509 208.000 146.246 208.000 L 173.984 208.000 160.503 194.250 C 153.089 186.688 147.017 180.388 147.011 180.250 C 147.005 180.113 159.256 180.000 174.236 180.000 L 201.472 180.000 188.236 166.737 C 180.956 159.442 175.000 153.142 175.000 152.737 C 175.000 152.331 187.481 152.000 202.737 152.000 L 230.473 152.000 216.500 166.000 M 134.330 221.750 L 147.000 234.500 159.669 221.752 C 166.636 214.740 172.471 209.137 172.634 209.301 C 172.797 209.464 167.094 215.421 159.961 222.539 L 146.990 235.481 133.750 222.240 C 126.468 214.958 120.768 209.000 121.084 209.000 C 121.401 209.000 127.361 214.738 134.330 221.750 M 194.764 228.009 L 187.500 220.518 194.761 227.493 L 202.022 234.468 214.761 221.955 L 227.500 209.441 214.764 222.471 L 202.028 235.500 194.764 228.009 "/></g>
<g fill="#0D4C38FF" stroke="#0D4C38FF">
<path d="M 98.216 117.750 L 98.432 136.500 99.000 118.000 L 99.568 99.500 99.784 117.750 L 100.000 136.000 202.000 136.000 L 304.000 136.000 304.000 117.500 L 304.000 99.000 201.000 99.000 L 98.000 99.000 98.216 117.750 M 192.471 110.169 C 194.695 111.182 195.001 111.882 194.768 115.419 C 194.621 117.664 194.921 119.725 195.435 120.000 C 195.949 120.275 196.412 121.478 196.464 122.673 C 196.516 123.868 196.259 124.660 195.893 124.434 C 195.526 124.207 194.671 124.692 193.991 125.511 C 192.458 127.358 185.641 127.477 184.152 125.684 C 183.030 124.332 182.752 121.123 183.229 115.030 C 183.427 112.486 184.168 111.221 186.000 110.294 C 189.090 108.731 189.307 108.727 192.471 110.169 M 214.756 110.349 C 215.337 110.708 215.590 112.014 215.319 113.251 C 214.917 115.088 215.031 115.226 215.944 114.000 C 216.839 112.798 216.948 112.997 216.495 115.000 C 216.184 116.375 215.789 119.120 215.616 121.100 C 215.174 126.185 214.720 126.583 209.409 126.539 C 204.050 126.495 202.258 124.446 206.679 123.417 C 208.231 123.056 210.063 122.053 210.750 121.189 C 211.438 120.325 212.000 120.099 212.000 120.686 C 212.000 122.076 210.018 123.658 207.500 124.276 C 205.638 124.734 205.650 124.776 207.679 124.884 C 210.091 125.012 213.000 122.611 213.000 120.491 C 213.000 119.490 212.069 119.277 209.508 119.692 C 207.385 120.037 205.426 119.768 204.508 119.007 C 202.262 117.143 202.619 112.380 205.137 110.617 C 207.206 109.168 212.601 109.018 214.756 110.349 M 234.290 112.001 C 234.578 113.102 234.438 113.771 233.979 113.487 C 232.850 112.789 231.688 116.686 232.590 118.146 C 233.070 118.923 232.869 119.037 231.985 118.490 C 231.015 117.891 230.836 118.132 231.319 119.388 C 231.682 120.336 231.566 120.850 231.059 120.536 C 230.554 120.224 229.569 121.551 228.869 123.484 C 227.246 127.973 225.120 128.144 225.552 123.750 C 225.728 121.963 225.970 120.725 226.088 121.000 C 226.207 121.275 226.409 121.050 226.537 120.500 C 226.665 119.950 226.890 119.500 227.037 119.500 C 227.184 119.500 227.409 119.050 227.537 118.500 C 227.665 117.950 227.837 117.725 227.920 118.000 C 228.108 118.622 230.916 113.779 230.965 112.750 C 230.984 112.338 228.975 112.000 226.500 112.000 C 224.025 112.000 222.000 111.550 222.000 111.000 C 222.000 110.447 224.628 110.000 227.883 110.000 C 232.927 110.000 233.841 110.286 234.290 112.001 M 175.000 118.500 C 175.000 125.389 174.716 127.000 173.500 127.000 C 172.321 127.000 172.000 125.611 172.000 120.500 C 172.000 116.415 171.589 114.000 170.893 114.000 C 170.284 114.000 170.036 114.652 170.342 115.449 C 170.714 116.418 170.418 116.714 169.449 116.342 C 168.652 116.036 168.000 115.476 168.000 115.096 C 168.000 113.534 171.624 110.026 173.250 110.013 C 174.780 110.002 175.000 111.066 175.000 118.500 "/></g>
<g fill="#0D4C38FF" stroke="#0D4C38FF">
<path d="M 140.214 248.128 C 138.195 248.711 137.195 249.506 137.619 250.192 C 138.031 250.860 137.857 251.030 137.186 250.615 C 136.568 250.233 134.361 250.818 132.281 251.916 C 130.201 253.014 128.950 253.970 129.500 254.041 C 130.050 254.112 127.220 254.398 123.212 254.676 C 117.590 255.065 115.370 254.817 113.497 253.590 C 110.445 251.590 109.383 251.552 111.000 253.500 C 111.685 254.325 112.865 255.000 113.622 255.000 C 114.380 255.000 115.000 255.450 115.000 256.000 C 115.000 256.550 114.545 256.888 113.989 256.750 C 113.433 256.613 114.438 257.850 116.223 259.500 C 118.787 261.870 119.052 261.975 117.484 260.000 L 115.500 257.500 117.683 259.344 C 118.883 260.358 119.648 261.754 119.382 262.446 C 118.841 263.857 125.677 270.317 126.907 269.558 C 127.340 269.290 129.000 270.518 130.597 272.286 L 133.500 275.500 130.000 272.502 L 126.500 269.504 129.969 273.275 C 131.876 275.349 133.981 276.838 134.645 276.583 C 135.310 276.328 136.449 276.880 137.177 277.809 C 138.391 279.361 138.336 279.378 136.500 278.017 C 134.519 276.548 134.518 276.555 136.411 278.774 C 137.462 280.006 139.027 280.898 139.889 280.757 C 140.750 280.616 141.466 281.175 141.480 282.000 C 141.494 282.825 142.404 283.501 143.503 283.501 C 144.609 283.502 145.501 284.171 145.503 285.001 C 145.504 285.826 146.179 286.561 147.003 286.635 C 149.244 286.836 150.126 287.218 149.000 287.500 C 148.022 287.745 148.494 288.071 150.500 288.537 C 152.629 289.032 152.953 289.256 151.750 289.401 C 151.063 289.484 151.685 290.345 153.134 291.315 C 154.582 292.284 156.157 293.007 156.634 292.920 C 157.110 292.834 157.838 292.873 158.250 293.007 C 158.663 293.140 158.457 293.306 157.794 293.375 C 157.131 293.444 157.818 294.306 159.322 295.292 C 160.826 296.277 162.563 296.770 163.183 296.387 C 163.852 295.973 164.032 296.139 163.627 296.795 C 162.781 298.163 166.619 300.353 168.175 299.392 C 168.855 298.972 169.034 299.136 168.622 299.803 C 167.772 301.178 173.604 304.363 175.184 303.386 C 175.855 302.972 176.032 303.140 175.622 303.803 C 174.772 305.178 180.604 308.363 182.184 307.386 C 182.922 306.930 183.027 307.147 182.490 308.015 C 181.891 308.985 182.132 309.164 183.388 308.681 C 184.332 308.319 184.868 308.405 184.579 308.872 C 184.107 309.636 190.959 313.302 193.479 313.635 C 194.041 313.709 194.275 313.837 194.000 313.920 C 192.834 314.272 198.692 316.932 200.703 316.965 C 203.796 317.014 208.061 314.908 207.314 313.699 C 206.969 313.141 207.187 312.997 207.802 313.377 C 209.419 314.377 227.245 305.205 226.386 303.815 C 225.968 303.140 226.140 302.969 226.816 303.386 C 228.268 304.284 234.251 301.215 233.481 299.969 C 233.147 299.428 233.669 299.301 234.698 299.671 C 235.745 300.047 236.154 299.941 235.674 299.417 C 235.209 298.909 235.645 298.512 236.672 298.508 C 237.674 298.503 238.496 297.900 238.497 297.167 C 238.499 296.433 238.799 296.132 239.164 296.498 C 239.530 296.863 240.806 296.639 242.000 296.000 C 243.194 295.361 243.874 294.540 243.510 294.177 C 243.146 293.813 243.445 293.512 244.174 293.508 C 244.903 293.503 245.500 293.051 245.500 292.501 C 245.500 291.952 246.399 291.502 247.497 291.501 C 248.596 291.501 249.552 290.938 249.622 290.250 C 249.693 289.563 249.860 288.888 249.993 288.750 C 250.127 288.613 250.184 288.838 250.118 289.250 C 249.905 290.605 251.727 290.034 253.128 288.308 C 254.296 286.867 254.292 286.742 253.095 287.463 C 252.135 288.041 251.920 287.939 252.415 287.138 C 252.813 286.494 253.577 286.238 254.112 286.569 C 254.648 286.901 256.678 285.895 258.624 284.336 C 260.570 282.776 261.467 281.725 260.617 282.000 C 259.475 282.369 259.355 282.194 260.158 281.328 C 260.755 280.684 261.792 280.367 262.462 280.624 C 263.132 280.881 264.314 280.283 265.090 279.296 C 266.406 277.620 266.367 277.600 264.500 279.000 C 262.662 280.379 262.607 280.363 263.823 278.809 C 264.551 277.880 265.690 277.328 266.355 277.583 C 267.019 277.838 269.124 276.353 271.031 274.283 C 274.138 270.912 274.187 270.779 271.500 273.009 L 268.500 275.500 270.856 272.822 C 272.153 271.349 273.736 270.345 274.376 270.591 C 275.780 271.129 285.668 261.334 284.698 260.365 C 284.324 259.990 284.576 259.071 285.259 258.321 C 286.295 257.183 286.417 257.215 286.000 258.515 C 285.725 259.371 287.028 258.390 288.896 256.334 C 290.840 254.195 291.802 252.434 291.146 252.215 C 290.516 252.005 290.000 252.499 290.000 253.314 C 290.000 254.533 288.368 254.748 280.750 254.532 C 275.663 254.389 271.950 254.190 272.500 254.091 C 273.050 253.992 271.799 253.014 269.719 251.916 C 267.639 250.818 265.432 250.233 264.814 250.615 C 264.149 251.026 263.968 250.860 264.371 250.209 C 265.069 249.079 259.331 247.011 255.500 247.011 C 251.669 247.011 245.931 249.079 246.629 250.209 C 247.023 250.846 246.852 251.027 246.223 250.638 C 245.000 249.882 237.863 252.969 238.489 253.982 C 238.945 254.720 223.103 254.483 218.500 253.684 C 216.850 253.397 215.950 253.108 216.500 253.041 C 217.050 252.975 216.252 252.243 214.726 251.416 C 213.201 250.588 211.444 250.226 210.822 250.610 C 210.147 251.027 209.967 250.863 210.376 250.201 C 211.421 248.510 203.360 246.719 198.191 247.494 C 192.579 248.336 188.877 249.992 189.686 251.301 C 190.029 251.855 189.823 252.009 189.229 251.642 C 187.990 250.876 182.851 252.950 183.478 253.964 C 183.942 254.715 168.165 254.494 163.500 253.684 C 161.850 253.397 160.950 253.108 161.500 253.041 C 162.050 252.975 161.252 252.243 159.726 251.416 C 158.201 250.588 156.444 250.226 155.822 250.610 C 155.149 251.026 154.967 250.863 155.371 250.209 C 155.789 249.532 154.598 248.705 152.276 248.060 C 147.811 246.820 144.689 246.837 140.214 248.128 "/></g>
<g fill="#0D4C38FF" stroke="#0D4C38FF">
<path d="M 173.750 179.766 C 159.038 179.912 147.000 180.362 146.999 180.766 C 146.999 181.170 158.580 181.356 172.736 181.180 C 186.891 181.004 198.230 181.103 197.934 181.399 C 197.638 181.695 186.433 181.982 173.035 182.036 L 148.674 182.133 157.515 191.016 C 162.378 195.901 166.796 199.626 167.333 199.294 C 167.870 198.962 168.021 199.158 167.668 199.728 C 166.843 201.063 170.646 205.912 173.388 207.020 C 174.632 207.522 163.786 207.899 147.004 207.937 L 118.509 208.000 132.750 222.241 L 146.991 236.482 160.771 222.729 L 174.551 208.975 179.444 213.943 C 182.135 216.675 184.780 218.636 185.323 218.301 C 185.865 217.965 186.037 218.131 185.705 218.668 C 185.373 219.205 188.906 223.429 193.555 228.055 L 202.009 236.465 215.992 222.508 L 229.976 208.551 234.988 213.488 C 237.745 216.203 240.034 217.992 240.077 217.462 C 240.119 216.933 240.307 217.306 240.494 218.292 C 240.895 220.399 255.857 236.000 257.477 236.000 C 259.079 236.000 267.090 227.592 267.382 225.604 C 267.754 223.069 282.047 209.081 283.640 209.692 C 284.388 209.979 285.000 209.716 285.000 209.107 C 285.000 208.325 277.089 208.000 258.059 208.000 C 243.241 208.000 230.889 207.630 230.610 207.178 C 230.331 206.726 234.242 202.339 239.301 197.428 L 248.500 188.500 239.508 198.000 C 232.979 204.898 234.200 203.881 243.964 194.289 C 251.360 187.023 257.190 180.857 256.919 180.586 C 256.256 179.923 206.891 179.436 173.750 179.766 M 188.990 193.750 L 176.510 206.500 189.496 193.754 L 202.481 181.009 215.490 193.754 L 228.499 206.500 216.999 194.500 L 205.500 182.500 217.083 193.817 C 223.454 200.042 228.667 205.780 228.667 206.567 C 228.667 207.774 224.534 208.000 202.422 208.000 C 179.550 208.000 176.206 207.805 176.399 206.485 C 176.646 204.805 198.923 181.363 200.485 181.140 C 201.027 181.063 195.854 186.738 188.990 193.750 M 229.153 181.965 C 215.762 182.259 204.598 182.163 204.344 181.750 C 204.090 181.338 215.046 181.097 228.691 181.215 L 253.500 181.430 229.153 181.965 M 158.500 190.500 L 151.000 183.000 158.500 190.500 L 166.000 198.000 158.500 190.500 "/></g>
<g fill="#0D4C38FF" stroke="#0D4C38FF">
<path d="M 175.000 152.764 C 175.000 153.185 180.962 159.372 188.250 166.514 L 201.499 179.500 189.500 167.000 L 177.500 154.500 189.750 166.484 L 202.000 178.469 214.250 166.484 L 226.500 154.500 214.506 167.000 L 202.511 179.500 216.501 165.750 L 230.491 152.000 202.745 152.000 C 187.485 152.000 175.000 152.344 175.000 152.764 M 227.656 153.750 C 227.402 154.163 216.238 154.259 202.847 153.965 L 178.500 153.430 203.309 153.215 C 216.954 153.097 227.910 153.338 227.656 153.750 "/></g>
<g fill="#FFFFFFFF" stroke="#FFFFFFFF">
<path d="M 189.005 194.495 L 175.528 208.000 202.509 208.000 L 229.491 208.000 215.986 194.495 L 202.482 180.991 189.005 194.495 "/></g>
<g fill="#FFFFFFFF" stroke="#FFFFFFFF">
<path d="M 186.009 110.290 C 182.869 111.878 182.218 114.950 184.641 116.742 C 186.398 118.040 186.404 118.170 184.750 119.107 C 182.742 120.246 182.431 124.031 184.200 125.800 C 186.068 127.668 192.443 127.272 194.345 125.171 C 196.567 122.716 196.430 121.420 193.750 119.510 C 191.670 118.029 191.632 117.831 193.250 116.904 C 195.908 115.380 195.453 111.527 192.453 110.161 C 189.309 108.728 189.087 108.733 186.009 110.290 M 191.800 120.200 C 193.742 122.142 193.186 123.915 190.415 124.611 C 188.642 125.056 187.308 124.728 186.165 123.569 C 184.611 121.990 184.629 121.782 186.441 120.439 C 188.807 118.686 190.222 118.622 191.800 120.200 M 192.527 113.044 C 193.394 114.446 191.166 117.000 189.078 117.000 C 186.829 117.000 185.032 115.081 185.685 113.378 C 186.302 111.770 191.581 111.513 192.527 113.044 M 189.083 123.000 C 190.138 123.000 191.068 122.550 191.150 122.000 C 191.233 121.450 191.345 121.563 191.400 122.250 C 191.532 123.899 186.743 123.875 186.408 122.225 C 186.266 121.524 186.379 121.411 186.658 121.975 C 186.938 122.539 188.029 123.000 189.083 123.000 "/></g>
<g fill="#FFFFFFFF" stroke="#FFFFFFFF">
<path d="M 205.250 110.522 C 202.624 112.379 202.211 117.101 204.508 119.007 C 205.426 119.768 207.385 120.037 209.508 119.692 C 212.069 119.277 213.000 119.490 213.000 120.491 C 213.000 123.131 209.831 125.216 206.756 124.601 C 204.688 124.188 203.958 124.379 204.247 125.259 C 204.935 127.357 210.429 127.283 213.077 125.139 C 215.062 123.531 215.500 122.264 215.500 118.124 C 215.500 114.953 214.941 112.524 214.000 111.602 C 211.580 109.230 207.745 108.757 205.250 110.522 M 212.000 115.559 C 212.000 116.352 211.646 117.000 211.214 117.000 C 210.782 117.000 210.429 116.133 210.429 115.073 C 210.429 114.014 210.782 113.365 211.214 113.632 C 211.646 113.900 212.000 114.766 212.000 115.559 "/></g>
<g fill="#003E29FF" stroke="#003E29FF">
<path d="M 205.000 181.766 C 205.000 182.187 210.513 187.924 217.250 194.516 L 229.500 206.500 217.534 194.269 L 205.568 182.037 229.534 181.750 L 253.500 181.462 229.250 181.231 C 215.913 181.104 205.000 181.345 205.000 181.766 "/></g>
<g fill="#FFFFFFFF" stroke="#FFFFFFFF">
<path d="M 222.000 111.000 C 222.000 111.550 224.025 112.000 226.500 112.000 C 228.975 112.000 231.000 112.240 231.000 112.533 C 231.000 112.827 229.933 115.189 228.630 117.783 C 225.251 124.505 224.588 127.002 226.183 126.992 C 227.304 126.984 234.082 112.940 234.021 110.750 C 233.989 109.604 222.000 109.854 222.000 111.000 "/></g>
<g fill="#FFFFFFFF" stroke="#FFFFFFFF">
<path d="M 169.750 112.217 C 167.781 114.681 167.519 116.000 169.000 116.000 C 169.550 116.000 170.000 115.550 170.000 115.000 C 170.000 114.450 170.450 114.000 171.000 114.000 C 171.564 114.000 172.000 116.833 172.000 120.500 C 172.000 125.611 172.321 127.000 173.500 127.000 C 174.716 127.000 175.000 125.389 175.000 118.500 C 175.000 111.066 174.780 110.002 173.250 110.013 C 172.288 110.021 170.713 111.012 169.750 112.217 "/></g>
<g fill="#003E29FF" stroke="#003E29FF">
<path d="M 150.609 181.823 C 150.329 182.276 153.790 186.214 158.300 190.573 L 166.500 198.500 158.542 190.269 L 150.584 182.037 174.542 181.750 L 198.500 181.462 174.809 181.231 C 161.779 181.104 150.889 181.371 150.609 181.823 "/></g>
<g fill="#003E29FF" stroke="#003E29FF">
<path d="M 202.357 153.749 C 224.816 154.020 226.135 154.138 224.857 155.768 C 223.630 157.334 223.668 157.368 225.250 156.128 C 226.213 155.373 227.000 154.360 227.000 153.878 C 227.000 153.392 216.170 153.103 202.750 153.231 L 178.500 153.462 202.357 153.749 "/></g>
<g fill="#003E29FF" stroke="#003E29FF">
<path d="M 189.250 166.500 L 201.999 179.489 212.750 168.501 L 223.500 157.512 212.749 167.990 L 201.997 178.467 189.249 165.989 L 176.500 153.510 189.250 166.500 "/></g>
<g fill="#0D4C38FF" stroke="#0D4C38FF">
<path d="M 205.362 113.500 C 204.347 116.143 205.811 118.000 208.910 118.000 C 212.334 118.000 213.394 116.816 212.497 113.991 C 211.726 111.560 206.251 111.183 205.362 113.500 "/></g>
<g fill="#003E29FF" stroke="#003E29FF">
<path d="M 214.261 222.454 L 202.022 234.468 194.761 227.493 L 187.500 220.518 194.764 228.009 L 202.029 235.500 214.264 222.970 L 226.500 210.439 214.261 222.454 "/></g>
<g fill="#003E29FF" stroke="#003E29FF">
<path d="M 159.262 222.453 L 147.024 234.466 140.262 227.993 L 133.500 221.520 140.265 228.510 L 147.029 235.500 159.265 222.970 L 171.500 210.439 159.262 222.453 "/></g>
<g fill="#0D4C38FF" stroke="#0D4C38FF">
<path d="M 186.441 120.439 C 184.629 121.782 184.611 121.990 186.165 123.569 C 187.308 124.728 188.642 125.056 190.415 124.611 C 193.186 123.915 193.742 122.142 191.800 120.200 C 190.222 118.622 188.807 118.686 186.441 120.439 "/></g>
<g fill="#0D4C38FF" stroke="#0D4C38FF">
<path d="M 185.685 113.378 C 185.032 115.081 186.829 117.000 189.078 117.000 C 191.166 117.000 193.394 114.446 192.527 113.044 C 191.581 111.513 186.302 111.770 185.685 113.378 M 189.000 115.000 C 190.100 115.000 191.036 114.438 191.079 113.750 C 191.142 112.751 191.259 112.751 191.662 113.749 C 192.273 115.264 189.599 116.444 187.437 115.614 C 186.486 115.249 186.192 114.556 186.687 113.847 C 187.297 112.971 187.438 112.969 187.250 113.840 C 187.113 114.478 187.900 115.000 189.000 115.000 "/></g>
<g fill="#003E29FF" stroke="#003E29FF">
<path d="M 188.000 193.980 L 176.500 205.532 188.000 193.980 L 199.500 182.427 188.000 193.980 "/></g>
<g fill="#003E29FF" stroke="#003E29FF">
<path d="M 239.000 197.973 L 230.500 206.540 239.000 197.973 L 247.500 189.407 239.000 197.973 "/></g>
<g fill="#003E29FF" stroke="#003E29FF">
<path d="M 291.500 278.472 L 283.500 286.542 291.500 278.472 L 299.500 270.402 291.500 278.472 "/></g>
<g fill="#0D4C38FF" stroke="#0D4C38FF">
<path d="M 291.000 277.970 L 283.500 285.543 291.000 277.970 L 298.500 270.397 291.000 277.970 "/></g>
<g fill="#0D4C38FF" stroke="#0D4C38FF">
<path d="M 275.500 217.468 L 268.500 224.545 275.500 217.468 L 282.500 210.392 275.500 217.468 "/></g>
<g fill="#003E29FF" stroke="#003E29FF">
<path d="M 110.500 278.500 L 118.000 286.000 110.500 278.500 L 103.000 271.000 110.500 278.500 "/></g>
<g fill="#003E29FF" stroke="#003E29FF">
<path d="M 274.500 217.468 L 267.500 224.545 274.500 217.468 L 281.500 210.392 274.500 217.468 "/></g>
<g fill="#0D4C38FF" stroke="#0D4C38FF">
<path d="M 111.000 278.000 L 118.000 285.000 111.000 278.000 L 104.000 271.000 111.000 278.000 "/></g>
<g fill="#003E29FF" stroke="#003E29FF">
<path d="M 122.000 209.858 C 122.000 210.249 124.573 213.028 127.718 216.034 L 133.436 221.500 127.718 215.324 C 124.573 211.928 122.000 209.468 122.000 209.858 "/></g>
<g fill="#003E29FF" stroke="#003E29FF">
<path d="M 116.500 258.500 L 120.000 262.000 116.500 258.500 L 113.000 255.000 116.500 258.500 "/></g>
<g fill="#003E29FF" stroke="#003E29FF">
<path d="M 130.000 272.000 L 133.000 275.000 130.000 272.000 L 127.000 269.000 130.000 272.000 "/></g>
<g fill="#003E29FF" stroke="#003E29FF">
<path d="M 236.000 213.000 L 239.000 216.000 236.000 213.000 L 233.000 210.000 236.000 213.000 "/></g>
<g fill="#003E29FF" stroke="#003E29FF">
<path d="M 186.687 113.847 C 185.752 115.189 188.230 116.471 190.217 115.673 C 190.923 115.390 190.488 115.122 189.250 115.079 C 188.013 115.036 187.113 114.478 187.250 113.840 C 187.438 112.969 187.297 112.971 186.687 113.847 "/></g>
<g fill="#0D4C38FF" stroke="#0D4C38FF">
<path d="M 183.658 118.449 C 183.286 119.418 183.582 119.714 184.551 119.342 C 185.348 119.036 186.000 118.384 186.000 117.893 C 186.000 116.455 184.265 116.867 183.658 118.449 "/></g>
<g fill="#003E29FF" stroke="#003E29FF">
<path d="M 271.500 272.410 L 269.500 274.567 271.500 272.410 L 273.500 270.253 271.500 272.410 "/></g>
<g fill="#003E29FF" stroke="#003E29FF">
<path d="M 208.000 123.110 C 205.628 123.765 205.615 123.806 207.750 123.900 C 208.988 123.955 210.113 123.644 210.250 123.209 C 210.388 122.774 209.375 122.729 208.000 123.110 "/></g>
<g fill="#003E29FF" stroke="#003E29FF">
<path d="M 210.429 115.073 C 210.429 116.133 210.782 117.000 211.214 117.000 C 211.646 117.000 212.000 116.352 212.000 115.559 C 212.000 114.766 211.646 113.900 211.214 113.632 C 210.782 113.365 210.429 114.014 210.429 115.073 "/></g>
</svg>
